<svg xmlns="http://www.w3.org/2000/svg" version="1.1" xmlns:xlink="http://www.w3.org/1999/xlink" xmlns:svgjs="http://svgjs.com/svgjs" width="2500" height="1200" preserveAspectRatio="none" viewBox="0 0 2500 1200"><g mask="url(&quot;#SvgjsMask1023&quot;)" fill="none"><rect width="2500" height="1200" x="0" y="0" fill="rgba(100, 26, 205, 1)"></rect><path d="M2624.9999999999995 1200L0 1200 L0 692.51Q89.83 657.34, 125 747.17Q153.92 651.09, 250 680.01Q362.65 584.32, 458.3333333333333 696.97Q535.91 649.55, 583.3333333333333 727.13Q650.86 586.33, 791.6666666666665 653.86Q874.8 611.99, 916.6666666666665 695.12Q984.64 554.76, 1124.9999999999998 622.74Q1246.11 535.51, 1333.333333333333 656.62Q1449.32 564.28, 1541.6666666666663 680.27Q1660.8 674.4, 1666.6666666666663 793.53Q1723.53 725.39, 1791.6666666666663 782.26Q1814.76 680.35, 1916.6666666666663 703.44Q1991.6 653.37, 2041.6666666666663 728.3Q2055.94 617.57, 2166.666666666666 631.84Q2287.5 544.34, 2374.9999999999995 665.17Q2413.02 578.19, 2499.9999999999995 616.21Q2579.53 570.75, 2624.9999999999995 650.28z" fill="rgba(110, 18, 199, 1)"></path><path d="M2708.333333333333 1200L0 1200 L0 865.44Q79.6 736.71, 208.33333333333331 816.31Q345.88 745.52, 416.66666666666663 883.07Q515.16 856.57, 541.6666666666666 955.06Q618.23 823.29, 750 899.86Q818.14 759.67, 958.3333333333333 827.81Q1108.5 769.64, 1166.6666666666665 919.81Q1282.63 827.44, 1374.9999999999998 943.4Q1451.82 811.88, 1583.333333333333 888.7Q1704.16 801.2, 1791.6666666666663 922.03Q1811.76 817.12, 1916.6666666666663 837.21Q1952.25 747.8, 2041.6666666666663 783.38Q2117.48 734.2, 2166.666666666666 810.01Q2290.54 725.55, 2374.9999999999995 849.43Q2454.35 803.78, 2499.9999999999995 883.13Q2571.75 746.55, 2708.333333333333 818.3z" fill="#25467d"></path><path d="M2583.3333333333335 1200L0 1200 L0 964.81Q130.81 887.28, 208.33333333333331 1018.09Q212.92 897.67, 333.3333333333333 902.26Q445.04 805.63, 541.6666666666666 917.33Q652.76 903.42, 666.6666666666666 1014.51Q759.88 982.72, 791.6666666666666 1075.93Q869.69 1028.95, 916.6666666666666 1106.98Q959.9 941.88, 1125 985.12Q1244.94 896.73, 1333.3333333333333 1016.67Q1405.72 964.06, 1458.3333333333333 1036.45Q1487.58 940.7, 1583.3333333333333 969.94Q1699.27 877.54, 1791.6666666666665 993.48Q1873.93 867.41, 1999.9999999999998 949.67Q2099.87 924.53, 2125 1024.4Q2178.55 869.61, 2333.3333333333335 923.16Q2408.54 873.37, 2458.3333333333335 948.57Q2576.22 941.45, 2583.3333333333335 1059.34z" fill="#356cb1"></path><path d="M2583.3333333333335 1200L0 1200 L0 1174.16Q22.81 1071.97, 125 1094.77Q254.23 1015.67, 333.3333333333333 1144.9Q350.12 1036.68, 458.3333333333333 1053.47Q571.84 958.64, 666.6666666666666 1072.14Q804.47 1084.95, 791.6666666666666 1222.75Q909.16 1131.91, 1000 1249.4Q1067.7 1192.11, 1125 1259.81Q1190.8 1117.27, 1333.3333333333333 1183.07Q1361.51 1086.24, 1458.3333333333333 1114.42Q1533.6 1064.69, 1583.3333333333333 1139.96Q1681.86 1113.49, 1708.3333333333333 1212.02Q1818.53 1113.89, 1916.6666666666665 1224.09Q1989.22 1088.31, 2125 1160.87Q2140.21 1051.08, 2250 1066.29Q2372.37 980.33, 2458.3333333333335 1102.7Q2544.75 1064.12, 2583.3333333333335 1150.54z" fill="white"></path></g><defs><mask id="SvgjsMask1023"><rect width="2500" height="1200" fill="#ffffff"></rect></mask></defs></svg>