<svg xmlns="http://www.w3.org/2000/svg" version="1.1" xmlns:xlink="http://www.w3.org/1999/xlink" xmlns:svgjs="http://svgjs.com/svgjs" width="1743" height="912" preserveAspectRatio="none" viewBox="0 0 1743 912"><g mask="url(&quot;#SvgjsMask2209&quot;)" fill="none"><path d="M1089.84 0C1121.69 6.61 1112.05 47.32 1140 47.32C1178.93 47.32 1178.06 9.45 1223.6 0C1292.06 -14.21 1295.8 0 1368 0C1482 0 1482 0 1596 0C1710 0 1767 -57 1824 0C1881 57 1824 114 1824 228C1824 314.37 1855.58 333.62 1824 400.73C1801.93 447.62 1747.22 408.61 1716.71 456C1656.02 550.25 1690.19 577.72 1641.6 684C1629.84 709.72 1606.97 694.21 1596 720C1558.48 808.21 1604.98 861.17 1544.62 912C1490.98 957.17 1456.31 912 1368 912C1254 912 1254 912 1140 912C1026 912 1026 912 912 912C811.82 912 745.15 964.52 711.64 912C672.42 850.52 775.96 786.32 766.55 684C762.14 636.05 724.67 611.45 684 611.45C644.78 611.45 619.92 636.33 606.77 684C578.47 786.6 647.16 842.32 601.09 912C571.78 956.32 528.55 912 456 912C342 912 342 912 228 912C114 912 57 969 0 912C-57 855 0 798 0 684C0 570 0 570 0 456C0 342 0 342 0 228C0 114 -57 57 0 0C57 -57 114 0 228 0C342 0 342 0 456 0C570 0 570 0 684 0C798 0 798 0 912 0C1000.92 0 1007.69 -17.05 1089.84 0" stroke="rgba(108, 74, 182, 1)" stroke-width="2"></path><path d="M1368 417C1342.46 417 1340.24 431.43 1326.25 456C1264.24 564.93 1203.17 599.73 1216 684C1224.05 736.86 1291.38 730.26 1368 730.26C1461.26 730.26 1525.29 746.03 1555.76 684C1592.65 608.9 1561.43 539.48 1502.73 456C1467.55 405.98 1430.7 417 1368 417" stroke="rgba(108, 74, 182, 1)" stroke-width="2"></path><path d="M1761.82 912C1761.82 888.73 1806.47 836 1824 836C1837.56 836 1841.1 891.1 1824 912C1810.01 929.1 1761.82 926.73 1761.82 912" stroke="rgba(108, 74, 182, 1)" stroke-width="2"></path><path d="M126.67 0C185.76 23.64 184.07 91.2 228 91.2C262.37 91.2 239.75 17.41 283.27 0C353.75 -28.19 369.63 0 456 0C527.25 0 598.5 -25.39 598.5 0C598.5 32.78 528.7 60.04 456 116.33C381.45 174.04 304 177.03 304 228C304 274.95 374.02 289.58 456 312.18C564.02 341.96 581.56 293.99 684 332.76C771.56 365.9 836 404.11 836 456C836 500.27 751.19 477.39 684 525.09C590.61 591.39 589.49 596.85 514.84 684C475.49 729.95 505.32 764.22 456 791.29C361.9 842.93 339.09 807.28 228 841.43C142.75 867.64 147.56 885.93 63.33 912C33.56 921.22 6.88 936.78 0 912C-24.78 822.78 0 798 0 684C0 619.4 -29.38 604.51 0 554.8C37.99 490.51 134.73 502.56 134.73 456C134.73 412 35.04 432.97 0 373.67C-32.33 318.97 0 300.84 0 228C0 114 -40.71 73.29 0 0C22.62 -40.71 71.76 -21.96 126.67 0" stroke="rgba(108, 74, 182, 1)" stroke-width="2"></path><path d="M912 99.75C863.62 99.75 801.93 28.65 801.93 0C801.93 -21.23 856.96 0 912 0C943.92 0 975.84 -17.47 975.84 0C975.84 32.41 950.57 99.75 912 99.75" stroke="rgba(108, 74, 182, 1)" stroke-width="2"></path><path d="M1029.26 228C1060.68 173.94 1082.68 188.19 1140 154.87C1252.05 89.73 1257.9 97.87 1368 31.09C1385.58 20.43 1375.86 2.66 1395.36 0C1489.86 -12.89 1495.68 0 1596 0C1710 0 1767 -57 1824 0C1881 57 1824 114 1824 228C1824 228 1824 228 1824 228C1710 311.6 1720.72 364.02 1596 395.2C1492.72 421.02 1470.15 324.26 1368 342C1295.14 354.66 1300.57 393.36 1245.97 456C1186.57 524.13 1204.78 542.69 1140 603.53C1083.4 656.69 1003.2 647.16 1003.2 684C1003.2 718.97 1069.16 722.12 1140 747.14C1251.56 786.55 1265.53 760.78 1368 812.87C1427.7 843.21 1464.34 882.79 1464.34 912C1464.34 932.36 1416.17 912 1368 912C1254 912 1254 912 1140 912C1026 912 1026 912 912 912C898.18 912 886.9 924.29 884.36 912C863.32 810.29 856.09 795.42 864.83 684C869.91 619.24 885.29 620.43 912 559.64C935.38 506.43 945.7 510.64 965.02 456C1004.33 344.82 973.19 324.5 1029.26 228" stroke="rgba(108, 74, 182, 1)" stroke-width="2"></path><path d="M1226.86 228C1226.86 200.54 1308.36 208.78 1368 160.64C1449.61 94.78 1428.22 57.17 1509.36 0C1542.22 -23.15 1552.68 0 1596 0C1710 0 1746.93 -36.93 1824 0C1860.93 17.7 1848.83 65.55 1824 109.25C1784.06 179.55 1761.72 171.66 1694.45 228C1647.72 267.14 1652.53 293.45 1596 300.2C1489.31 312.95 1480.85 289.07 1368 267C1296.28 252.97 1226.86 253.72 1226.86 228" stroke="rgba(108, 74, 182, 1)" stroke-width="2"></path><path d="M342 456C342 414.89 396.96 399.88 456 399.88C540.82 399.88 629.71 410.96 629.71 456C629.71 511.98 535.21 601.92 456 601.92C391.35 601.92 342 515.91 342 456" stroke="rgba(108, 74, 182, 1)" stroke-width="2"></path><path d="M1097.58 456C1097.58 404.58 1122.63 342 1140 342C1156.69 342 1165.69 401.61 1165.69 456C1165.69 476.49 1155.07 491.76 1140 491.76C1121.01 491.76 1097.58 479.46 1097.58 456" stroke="rgba(108, 74, 182, 1)" stroke-width="2"></path><path d="M152 684C152 666.21 190.41 638.4 228 638.4C263.49 638.4 298.15 666.08 298.15 684C298.15 699.73 263.19 705.71 228 705.71C190.12 705.71 152 699.86 152 684" stroke="rgba(108, 74, 182, 1)" stroke-width="2"></path><path d="M1023.35 912C1023.35 890.96 1075.86 837.9 1140 834.83C1248.19 829.64 1256.83 860.33 1368 895.48C1378.86 898.91 1384.06 907.13 1384.06 912C1384.06 915.39 1376.03 912 1368 912C1254 912 1254 912 1140 912C1081.68 912 1023.35 929.55 1023.35 912" stroke="rgba(108, 74, 182, 1)" stroke-width="2"></path></g><defs><mask id="SvgjsMask2209"><rect width="1743" height="912" fill="#ffffff"></rect></mask></defs></svg>