<svg xmlns="http://www.w3.org/2000/svg" version="1.1" xmlns:xlink="http://www.w3.org/1999/xlink" xmlns:svgjs="http://svgjs.com/svgjs" width="2500" height="2000" preserveAspectRatio="none" viewBox="0 0 2500 2000"><g mask="url(&quot;#SvgjsMask1025&quot;)" fill="none"><path d="M27.65 213.04L92.6 250.54L92.6 325.54L27.65 363.04L-37.3 325.54L-37.3 250.54zM92.6 325.54L157.56 363.04L157.56 438.04L92.6 475.54L27.65 438.04L27.65 363.04zM27.65 663.04L92.6 700.54L92.6 775.54L27.65 813.04L-37.3 775.54L-37.3 700.54zM92.6 1000.54L157.56 1038.04L157.56 1113.04L92.6 1150.54L27.65 1113.04L27.65 1038.04zM92.6 1450.54L157.56 1488.04L157.56 1563.04L92.6 1600.54L27.65 1563.04L27.65 1488.04zM27.65 1788.04L92.6 1825.54L92.6 1900.54L27.65 1938.04L-37.3 1900.54L-37.3 1825.54zM157.56 -11.96L222.51 25.54L222.51 100.54L157.56 138.04L92.6 100.54L92.6 25.54zM222.51 325.54L287.46 363.04L287.46 438.04L222.51 475.54L157.56 438.04L157.56 363.04zM157.56 438.04L222.51 475.54L222.51 550.54L157.56 588.04L92.6 550.54L92.6 475.54zM157.56 663.04L222.51 700.54L222.51 775.54L157.56 813.04L92.6 775.54L92.6 700.54zM157.56 888.04L222.51 925.54L222.51 1000.54L157.56 1038.04L92.6 1000.54L92.6 925.54zM222.51 1000.54L287.46 1038.04L287.46 1113.04L222.51 1150.54L157.56 1113.04L157.56 1038.04zM157.56 1563.04L222.51 1600.54L222.51 1675.54L157.56 1713.04L92.6 1675.54L92.6 1600.54zM157.56 1788.04L222.51 1825.54L222.51 1900.54L157.56 1938.04L92.6 1900.54L92.6 1825.54zM222.51 1900.54L287.46 1938.04L287.46 2013.04L222.51 2050.54L157.56 2013.04L157.56 1938.04zM352.42 325.54L417.37 363.04L417.37 438.04L352.42 475.54L287.46 438.04L287.46 363.04zM287.46 438.04L352.42 475.54L352.42 550.54L287.46 588.04L222.51 550.54L222.51 475.54zM352.42 550.54L417.37 588.04L417.37 663.04L352.42 700.54L287.46 663.04L287.46 588.04zM352.42 1000.54L417.37 1038.04L417.37 1113.04L352.42 1150.54L287.46 1113.04L287.46 1038.04zM352.42 1450.54L417.37 1488.04L417.37 1563.04L352.42 1600.54L287.46 1563.04L287.46 1488.04zM287.46 1788.04L352.42 1825.54L352.42 1900.54L287.46 1938.04L222.51 1900.54L222.51 1825.54zM287.46 2013.04L352.42 2050.54L352.42 2125.54L287.46 2163.04L222.51 2125.54L222.51 2050.54zM482.33 100.54L547.28 138.04L547.28 213.04L482.33 250.54L417.37 213.04L417.37 138.04zM417.37 438.04L482.33 475.54L482.33 550.54L417.37 588.04L352.42 550.54L352.42 475.54zM482.33 550.54L547.28 588.04L547.28 663.04L482.33 700.54L417.37 663.04L417.37 588.04zM417.37 663.04L482.33 700.54L482.33 775.54L417.37 813.04L352.42 775.54L352.42 700.54zM417.37 1113.04L482.33 1150.54L482.33 1225.54L417.37 1263.04L352.42 1225.54L352.42 1150.54zM482.33 1450.54L547.28 1488.04L547.28 1563.04L482.33 1600.54L417.37 1563.04L417.37 1488.04zM417.37 1563.04L482.33 1600.54L482.33 1675.54L417.37 1713.04L352.42 1675.54L352.42 1600.54zM417.37 2013.04L482.33 2050.54L482.33 2125.54L417.37 2163.04L352.42 2125.54L352.42 2050.54zM547.28 -11.96L612.23 25.54L612.23 100.54L547.28 138.04L482.33 100.54L482.33 25.54zM612.23 325.54L677.19 363.04L677.19 438.04L612.23 475.54L547.28 438.04L547.28 363.04zM547.28 438.04L612.23 475.54L612.23 550.54L547.28 588.04L482.33 550.54L482.33 475.54zM547.28 663.04L612.23 700.54L612.23 775.54L547.28 813.04L482.33 775.54L482.33 700.54zM547.28 1338.04L612.23 1375.54L612.23 1450.54L547.28 1488.04L482.33 1450.54L482.33 1375.54zM547.28 1563.04L612.23 1600.54L612.23 1675.54L547.28 1713.04L482.33 1675.54L482.33 1600.54zM677.19 -11.96L742.14 25.54L742.14 100.54L677.19 138.04L612.23 100.54L612.23 25.54zM742.14 100.54L807.1 138.04L807.1 213.04L742.14 250.54L677.19 213.04L677.19 138.04zM677.19 213.04L742.14 250.54L742.14 325.54L677.19 363.04L612.23 325.54L612.23 250.54zM742.14 325.54L807.1 363.04L807.1 438.04L742.14 475.54L677.19 438.04L677.19 363.04zM677.19 888.04L742.14 925.54L742.14 1000.54L677.19 1038.04L612.23 1000.54L612.23 925.54zM742.14 1000.54L807.1 1038.04L807.1 1113.04L742.14 1150.54L677.19 1113.04L677.19 1038.04zM677.19 1113.04L742.14 1150.54L742.14 1225.54L677.19 1263.04L612.23 1225.54L612.23 1150.54zM742.14 1225.54L807.1 1263.04L807.1 1338.04L742.14 1375.54L677.19 1338.04L677.19 1263.04zM677.19 1338.04L742.14 1375.54L742.14 1450.54L677.19 1488.04L612.23 1450.54L612.23 1375.54zM742.14 1675.54L807.1 1713.04L807.1 1788.04L742.14 1825.54L677.19 1788.04L677.19 1713.04zM677.19 1788.04L742.14 1825.54L742.14 1900.54L677.19 1938.04L612.23 1900.54L612.23 1825.54zM807.09 -11.96L872.05 25.54L872.05 100.54L807.09 138.04L742.14 100.54L742.14 25.54zM807.09 663.04L872.05 700.54L872.05 775.54L807.09 813.04L742.14 775.54L742.14 700.54zM872.05 775.54L937 813.04L937 888.04L872.05 925.54L807.09 888.04L807.09 813.04zM807.09 1113.04L872.05 1150.54L872.05 1225.54L807.09 1263.04L742.14 1225.54L742.14 1150.54zM872.05 1225.54L937 1263.04L937 1338.04L872.05 1375.54L807.09 1338.04L807.09 1263.04zM807.09 1338.04L872.05 1375.54L872.05 1450.54L807.09 1488.04L742.14 1450.54L742.14 1375.54zM872.05 1450.54L937 1488.04L937 1563.04L872.05 1600.54L807.09 1563.04L807.09 1488.04zM872.05 1675.54L937 1713.04L937 1788.04L872.05 1825.54L807.09 1788.04L807.09 1713.04zM872.05 1900.54L937 1938.04L937 2013.04L872.05 2050.54L807.09 2013.04L807.09 1938.04zM1001.96 100.54L1066.91 138.04L1066.91 213.04L1001.96 250.54L937 213.04L937 138.04zM937 213.04L1001.96 250.54L1001.96 325.54L937 363.04L872.05 325.54L872.05 250.54zM937 438.04L1001.96 475.54L1001.96 550.54L937 588.04L872.05 550.54L872.05 475.54zM1001.96 550.54L1066.91 588.04L1066.91 663.04L1001.96 700.54L937 663.04L937 588.04zM937 888.04L1001.96 925.54L1001.96 1000.54L937 1038.04L872.05 1000.54L872.05 925.54zM1001.96 1000.54L1066.91 1038.04L1066.91 1113.04L1001.96 1150.54L937 1113.04L937 1038.04zM937 1113.04L1001.96 1150.54L1001.96 1225.54L937 1263.04L872.05 1225.54L872.05 1150.54zM1001.96 1225.54L1066.91 1263.04L1066.91 1338.04L1001.96 1375.54L937 1338.04L937 1263.04zM1001.96 1450.54L1066.91 1488.04L1066.91 1563.04L1001.96 1600.54L937 1563.04L937 1488.04zM1001.96 1675.54L1066.91 1713.04L1066.91 1788.04L1001.96 1825.54L937 1788.04L937 1713.04zM937 1788.04L1001.96 1825.54L1001.96 1900.54L937 1938.04L872.05 1900.54L872.05 1825.54zM1001.96 1900.54L1066.91 1938.04L1066.91 2013.04L1001.96 2050.54L937 2013.04L937 1938.04zM1131.86 325.54L1196.82 363.04L1196.82 438.04L1131.86 475.54L1066.91 438.04L1066.91 363.04zM1131.86 1675.54L1196.82 1713.04L1196.82 1788.04L1131.86 1825.54L1066.91 1788.04L1066.91 1713.04zM1131.86 1900.54L1196.82 1938.04L1196.82 2013.04L1131.86 2050.54L1066.91 2013.04L1066.91 1938.04zM1066.91 2013.04L1131.86 2050.54L1131.86 2125.54L1066.91 2163.04L1001.96 2125.54L1001.96 2050.54zM1196.82 -11.96L1261.77 25.54L1261.77 100.54L1196.82 138.04L1131.86 100.54L1131.86 25.54zM1261.77 550.54L1326.72 588.04L1326.72 663.04L1261.77 700.54L1196.82 663.04L1196.82 588.04zM1196.82 663.04L1261.77 700.54L1261.77 775.54L1196.82 813.04L1131.86 775.54L1131.86 700.54zM1261.77 775.54L1326.72 813.04L1326.72 888.04L1261.77 925.54L1196.82 888.04L1196.82 813.04zM1261.77 1225.54L1326.72 1263.04L1326.72 1338.04L1261.77 1375.54L1196.82 1338.04L1196.82 1263.04zM1196.82 1563.04L1261.77 1600.54L1261.77 1675.54L1196.82 1713.04L1131.86 1675.54L1131.86 1600.54zM1261.77 1675.54L1326.72 1713.04L1326.72 1788.04L1261.77 1825.54L1196.82 1788.04L1196.82 1713.04zM1196.82 1788.04L1261.77 1825.54L1261.77 1900.54L1196.82 1938.04L1131.86 1900.54L1131.86 1825.54zM1196.82 2013.04L1261.77 2050.54L1261.77 2125.54L1196.82 2163.04L1131.86 2125.54L1131.86 2050.54zM1326.73 213.04L1391.68 250.54L1391.68 325.54L1326.73 363.04L1261.77 325.54L1261.77 250.54zM1391.68 550.54L1456.63 588.04L1456.63 663.04L1391.68 700.54L1326.73 663.04L1326.73 588.04zM1391.68 1000.54L1456.63 1038.04L1456.63 1113.04L1391.68 1150.54L1326.73 1113.04L1326.73 1038.04zM1326.73 1338.04L1391.68 1375.54L1391.68 1450.54L1326.73 1488.04L1261.77 1450.54L1261.77 1375.54zM1391.68 1450.54L1456.63 1488.04L1456.63 1563.04L1391.68 1600.54L1326.73 1563.04L1326.73 1488.04zM1391.68 1675.54L1456.63 1713.04L1456.63 1788.04L1391.68 1825.54L1326.73 1788.04L1326.73 1713.04zM1326.73 1788.04L1391.68 1825.54L1391.68 1900.54L1326.73 1938.04L1261.77 1900.54L1261.77 1825.54zM1456.63 663.04L1521.59 700.54L1521.59 775.54L1456.63 813.04L1391.68 775.54L1391.68 700.54zM1521.59 1450.54L1586.54 1488.04L1586.54 1563.04L1521.59 1600.54L1456.63 1563.04L1456.63 1488.04zM1521.59 1675.54L1586.54 1713.04L1586.54 1788.04L1521.59 1825.54L1456.63 1788.04L1456.63 1713.04zM1651.49 100.54L1716.45 138.04L1716.45 213.04L1651.49 250.54L1586.54 213.04L1586.54 138.04zM1586.54 213.04L1651.49 250.54L1651.49 325.54L1586.54 363.04L1521.59 325.54L1521.59 250.54zM1586.54 888.04L1651.49 925.54L1651.49 1000.54L1586.54 1038.04L1521.59 1000.54L1521.59 925.54zM1651.49 1000.54L1716.45 1038.04L1716.45 1113.04L1651.49 1150.54L1586.54 1113.04L1586.54 1038.04zM1586.54 1113.04L1651.49 1150.54L1651.49 1225.54L1586.54 1263.04L1521.59 1225.54L1521.59 1150.54zM1586.54 1338.04L1651.49 1375.54L1651.49 1450.54L1586.54 1488.04L1521.59 1450.54L1521.59 1375.54zM1651.49 1675.54L1716.45 1713.04L1716.45 1788.04L1651.49 1825.54L1586.54 1788.04L1586.54 1713.04zM1586.54 1788.04L1651.49 1825.54L1651.49 1900.54L1586.54 1938.04L1521.59 1900.54L1521.59 1825.54zM1781.4 100.54L1846.35 138.04L1846.35 213.04L1781.4 250.54L1716.45 213.04L1716.45 138.04zM1716.45 213.04L1781.4 250.54L1781.4 325.54L1716.45 363.04L1651.49 325.54L1651.49 250.54zM1781.4 550.54L1846.35 588.04L1846.35 663.04L1781.4 700.54L1716.45 663.04L1716.45 588.04zM1781.4 775.54L1846.35 813.04L1846.35 888.04L1781.4 925.54L1716.45 888.04L1716.45 813.04zM1716.45 888.04L1781.4 925.54L1781.4 1000.54L1716.45 1038.04L1651.49 1000.54L1651.49 925.54zM1781.4 1900.54L1846.35 1938.04L1846.35 2013.04L1781.4 2050.54L1716.45 2013.04L1716.45 1938.04zM1846.36 213.04L1911.31 250.54L1911.31 325.54L1846.36 363.04L1781.4 325.54L1781.4 250.54zM1846.36 438.04L1911.31 475.54L1911.31 550.54L1846.36 588.04L1781.4 550.54L1781.4 475.54zM1911.31 550.54L1976.26 588.04L1976.26 663.04L1911.31 700.54L1846.36 663.04L1846.36 588.04zM1911.31 775.54L1976.26 813.04L1976.26 888.04L1911.31 925.54L1846.36 888.04L1846.36 813.04zM1846.36 888.04L1911.31 925.54L1911.31 1000.54L1846.36 1038.04L1781.4 1000.54L1781.4 925.54zM1911.31 1000.54L1976.26 1038.04L1976.26 1113.04L1911.31 1150.54L1846.36 1113.04L1846.36 1038.04zM1846.36 1113.04L1911.31 1150.54L1911.31 1225.54L1846.36 1263.04L1781.4 1225.54L1781.4 1150.54zM1846.36 1338.04L1911.31 1375.54L1911.31 1450.54L1846.36 1488.04L1781.4 1450.54L1781.4 1375.54zM1846.36 1563.04L1911.31 1600.54L1911.31 1675.54L1846.36 1713.04L1781.4 1675.54L1781.4 1600.54zM1911.31 1675.54L1976.26 1713.04L1976.26 1788.04L1911.31 1825.54L1846.36 1788.04L1846.36 1713.04zM1911.31 1900.54L1976.26 1938.04L1976.26 2013.04L1911.31 2050.54L1846.36 2013.04L1846.36 1938.04zM2041.22 100.54L2106.17 138.04L2106.17 213.04L2041.22 250.54L1976.26 213.04L1976.26 138.04zM1976.26 438.04L2041.22 475.54L2041.22 550.54L1976.26 588.04L1911.31 550.54L1911.31 475.54zM1976.26 663.04L2041.22 700.54L2041.22 775.54L1976.26 813.04L1911.31 775.54L1911.31 700.54zM2041.22 775.54L2106.17 813.04L2106.17 888.04L2041.22 925.54L1976.26 888.04L1976.26 813.04zM1976.26 1113.04L2041.22 1150.54L2041.22 1225.54L1976.26 1263.04L1911.31 1225.54L1911.31 1150.54zM2041.22 1450.54L2106.17 1488.04L2106.17 1563.04L2041.22 1600.54L1976.26 1563.04L1976.26 1488.04zM1976.26 1563.04L2041.22 1600.54L2041.22 1675.54L1976.26 1713.04L1911.31 1675.54L1911.31 1600.54zM2041.22 1900.54L2106.17 1938.04L2106.17 2013.04L2041.22 2050.54L1976.26 2013.04L1976.26 1938.04zM2106.17 -11.96L2171.12 25.54L2171.12 100.54L2106.17 138.04L2041.22 100.54L2041.22 25.54zM2106.17 438.04L2171.12 475.54L2171.12 550.54L2106.17 588.04L2041.22 550.54L2041.22 475.54zM2106.17 663.04L2171.12 700.54L2171.12 775.54L2106.17 813.04L2041.22 775.54L2041.22 700.54zM2106.17 888.04L2171.12 925.54L2171.12 1000.54L2106.17 1038.04L2041.22 1000.54L2041.22 925.54zM2106.17 1113.04L2171.12 1150.54L2171.12 1225.54L2106.17 1263.04L2041.22 1225.54L2041.22 1150.54zM2171.12 1450.54L2236.08 1488.04L2236.08 1563.04L2171.12 1600.54L2106.17 1563.04L2106.17 1488.04zM2106.17 1563.04L2171.12 1600.54L2171.12 1675.54L2106.17 1713.04L2041.22 1675.54L2041.22 1600.54zM2171.12 1675.54L2236.08 1713.04L2236.08 1788.04L2171.12 1825.54L2106.17 1788.04L2106.17 1713.04zM2106.17 1788.04L2171.12 1825.54L2171.12 1900.54L2106.17 1938.04L2041.22 1900.54L2041.22 1825.54zM2171.12 1900.54L2236.08 1938.04L2236.08 2013.04L2171.12 2050.54L2106.17 2013.04L2106.17 1938.04zM2301.03 550.54L2365.99 588.04L2365.99 663.04L2301.03 700.54L2236.08 663.04L2236.08 588.04zM2236.08 663.04L2301.03 700.54L2301.03 775.54L2236.08 813.04L2171.12 775.54L2171.12 700.54zM2301.03 775.54L2365.99 813.04L2365.99 888.04L2301.03 925.54L2236.08 888.04L2236.08 813.04zM2301.03 1000.54L2365.99 1038.04L2365.99 1113.04L2301.03 1150.54L2236.08 1113.04L2236.08 1038.04zM2301.03 1225.54L2365.99 1263.04L2365.99 1338.04L2301.03 1375.54L2236.08 1338.04L2236.08 1263.04zM2236.08 1563.04L2301.03 1600.54L2301.03 1675.54L2236.08 1713.04L2171.12 1675.54L2171.12 1600.54zM2301.03 1900.54L2365.99 1938.04L2365.99 2013.04L2301.03 2050.54L2236.08 2013.04L2236.08 1938.04zM2236.08 2013.04L2301.03 2050.54L2301.03 2125.54L2236.08 2163.04L2171.12 2125.54L2171.12 2050.54zM2365.99 213.04L2430.94 250.54L2430.94 325.54L2365.99 363.04L2301.03 325.54L2301.03 250.54zM2430.94 550.54L2495.89 588.04L2495.89 663.04L2430.94 700.54L2365.99 663.04L2365.99 588.04zM2365.99 1113.04L2430.94 1150.54L2430.94 1225.54L2365.99 1263.04L2301.03 1225.54L2301.03 1150.54zM2365.99 2013.04L2430.94 2050.54L2430.94 2125.54L2365.99 2163.04L2301.03 2125.54L2301.03 2050.54zM2495.89 -11.96L2560.85 25.54L2560.85 100.54L2495.89 138.04L2430.94 100.54L2430.94 25.54zM2560.85 550.54L2625.8 588.04L2625.8 663.04L2560.85 700.54L2495.89 663.04L2495.89 588.04zM2495.89 663.04L2560.85 700.54L2560.85 775.54L2495.89 813.04L2430.94 775.54L2430.94 700.54zM2495.89 888.04L2560.85 925.54L2560.85 1000.54L2495.89 1038.04L2430.94 1000.54L2430.94 925.54zM2495.89 1788.04L2560.85 1825.54L2560.85 1900.54L2495.89 1938.04L2430.94 1900.54L2430.94 1825.54z" stroke="rgba(126, 5, 164, 1)" stroke-width="2"></path><path d="M0 -7.75L43.3 17.25L43.3 67.25L0 92.25L-43.3 67.25L-43.3 17.25zM43.3 217.25L86.61 242.25L86.61 292.25L43.3 317.25L0 292.25L0 242.25zM0 292.25L43.3 317.25L43.3 367.25L0 392.25L-43.3 367.25L-43.3 317.25zM0 442.25L43.3 467.25L43.3 517.25L0 542.25L-43.3 517.25L-43.3 467.25zM0 1042.25L43.3 1067.25L43.3 1117.25L0 1142.25L-43.3 1117.25L-43.3 1067.25zM43.3 1117.25L86.61 1142.25L86.61 1192.25L43.3 1217.25L0 1192.25L0 1142.25zM0 1342.25L43.3 1367.25L43.3 1417.25L0 1442.25L-43.3 1417.25L-43.3 1367.25zM43.3 1717.25L86.61 1742.25L86.61 1792.25L43.3 1817.25L0 1792.25L0 1742.25zM43.3 1867.25L86.61 1892.25L86.61 1942.25L43.3 1967.25L0 1942.25L0 1892.25zM0 1942.25L43.3 1967.25L43.3 2017.25L0 2042.25L-43.3 2017.25L-43.3 1967.25zM43.3 2017.25L86.61 2042.25L86.61 2092.25L43.3 2117.25L0 2092.25L0 2042.25zM129.91 217.25L173.21 242.25L173.21 292.25L129.91 317.25L86.61 292.25L86.61 242.25zM129.91 517.25L173.21 542.25L173.21 592.25L129.91 617.25L86.61 592.25L86.61 542.25zM129.91 667.25L173.21 692.25L173.21 742.25L129.91 767.25L86.61 742.25L86.61 692.25zM86.61 742.25L129.91 767.25L129.91 817.25L86.61 842.25L43.3 817.25L43.3 767.25zM86.61 892.25L129.91 917.25L129.91 967.25L86.61 992.25L43.3 967.25L43.3 917.25zM129.91 967.25L173.21 992.25L173.21 1042.25L129.91 1067.25L86.61 1042.25L86.61 992.25zM86.61 1192.25L129.91 1217.25L129.91 1267.25L86.61 1292.25L43.3 1267.25L43.3 1217.25zM86.61 1342.25L129.91 1367.25L129.91 1417.25L86.61 1442.25L43.3 1417.25L43.3 1367.25zM129.91 1417.25L173.21 1442.25L173.21 1492.25L129.91 1517.25L86.61 1492.25L86.61 1442.25zM86.61 1642.25L129.91 1667.25L129.91 1717.25L86.61 1742.25L43.3 1717.25L43.3 1667.25zM129.91 1717.25L173.21 1742.25L173.21 1792.25L129.91 1817.25L86.61 1792.25L86.61 1742.25zM129.91 2017.25L173.21 2042.25L173.21 2092.25L129.91 2117.25L86.61 2092.25L86.61 2042.25zM173.21 -7.75L216.51 17.25L216.51 67.25L173.21 92.25L129.91 67.25L129.91 17.25zM216.51 67.25L259.81 92.25L259.81 142.25L216.51 167.25L173.21 142.25L173.21 92.25zM173.21 142.25L216.51 167.25L216.51 217.25L173.21 242.25L129.91 217.25L129.91 167.25zM216.51 667.25L259.81 692.25L259.81 742.25L216.51 767.25L173.21 742.25L173.21 692.25zM173.21 742.25L216.51 767.25L216.51 817.25L173.21 842.25L129.91 817.25L129.91 767.25zM216.51 967.25L259.81 992.25L259.81 1042.25L216.51 1067.25L173.21 1042.25L173.21 992.25zM216.51 1267.25L259.81 1292.25L259.81 1342.25L216.51 1367.25L173.21 1342.25L173.21 1292.25zM173.21 1492.25L216.51 1517.25L216.51 1567.25L173.21 1592.25L129.91 1567.25L129.91 1517.25zM216.51 1567.25L259.81 1592.25L259.81 1642.25L216.51 1667.25L173.21 1642.25L173.21 1592.25zM216.51 1717.25L259.81 1742.25L259.81 1792.25L216.51 1817.25L173.21 1792.25L173.21 1742.25zM173.21 1942.25L216.51 1967.25L216.51 2017.25L173.21 2042.25L129.91 2017.25L129.91 1967.25zM216.51 2017.25L259.81 2042.25L259.81 2092.25L216.51 2117.25L173.21 2092.25L173.21 2042.25zM303.12 67.25L346.42 92.25L346.42 142.25L303.12 167.25L259.81 142.25L259.81 92.25zM259.81 142.25L303.12 167.25L303.12 217.25L259.81 242.25L216.51 217.25L216.51 167.25zM303.12 367.25L346.42 392.25L346.42 442.25L303.12 467.25L259.81 442.25L259.81 392.25zM259.81 742.25L303.12 767.25L303.12 817.25L259.81 842.25L216.51 817.25L216.51 767.25zM303.12 967.25L346.42 992.25L346.42 1042.25L303.12 1067.25L259.81 1042.25L259.81 992.25zM259.81 1042.25L303.12 1067.25L303.12 1117.25L259.81 1142.25L216.51 1117.25L216.51 1067.25zM303.12 1117.25L346.42 1142.25L346.42 1192.25L303.12 1217.25L259.81 1192.25L259.81 1142.25zM303.12 1267.25L346.42 1292.25L346.42 1342.25L303.12 1367.25L259.81 1342.25L259.81 1292.25zM303.12 1417.25L346.42 1442.25L346.42 1492.25L303.12 1517.25L259.81 1492.25L259.81 1442.25zM303.12 1567.25L346.42 1592.25L346.42 1642.25L303.12 1667.25L259.81 1642.25L259.81 1592.25zM259.81 1642.25L303.12 1667.25L303.12 1717.25L259.81 1742.25L216.51 1717.25L216.51 1667.25zM303.12 1867.25L346.42 1892.25L346.42 1942.25L303.12 1967.25L259.81 1942.25L259.81 1892.25zM389.72 367.25L433.03 392.25L433.03 442.25L389.72 467.25L346.42 442.25L346.42 392.25zM346.42 442.25L389.72 467.25L389.72 517.25L346.42 542.25L303.12 517.25L303.12 467.25zM389.72 667.25L433.03 692.25L433.03 742.25L389.72 767.25L346.42 742.25L346.42 692.25zM346.42 742.25L389.72 767.25L389.72 817.25L346.42 842.25L303.12 817.25L303.12 767.25zM346.42 892.25L389.72 917.25L389.72 967.25L346.42 992.25L303.12 967.25L303.12 917.25zM346.42 1042.25L389.72 1067.25L389.72 1117.25L346.42 1142.25L303.12 1117.25L303.12 1067.25zM389.72 1267.25L433.03 1292.25L433.03 1342.25L389.72 1367.25L346.42 1342.25L346.42 1292.25zM389.72 1417.25L433.03 1442.25L433.03 1492.25L389.72 1517.25L346.42 1492.25L346.42 1442.25zM389.72 1567.25L433.03 1592.25L433.03 1642.25L389.72 1667.25L346.42 1642.25L346.42 1592.25zM389.72 2017.25L433.03 2042.25L433.03 2092.25L389.72 2117.25L346.42 2092.25L346.42 2042.25zM433.03 -7.75L476.33 17.25L476.33 67.25L433.03 92.25L389.72 67.25L389.72 17.25zM476.33 67.25L519.63 92.25L519.63 142.25L476.33 167.25L433.03 142.25L433.03 92.25zM476.33 217.25L519.63 242.25L519.63 292.25L476.33 317.25L433.03 292.25L433.03 242.25zM433.03 292.25L476.33 317.25L476.33 367.25L433.03 392.25L389.72 367.25L389.72 317.25zM433.03 592.25L476.33 617.25L476.33 667.25L433.03 692.25L389.72 667.25L389.72 617.25zM476.33 667.25L519.63 692.25L519.63 742.25L476.33 767.25L433.03 742.25L433.03 692.25zM433.03 742.25L476.33 767.25L476.33 817.25L433.03 842.25L389.72 817.25L389.72 767.25zM433.03 892.25L476.33 917.25L476.33 967.25L433.03 992.25L389.72 967.25L389.72 917.25zM433.03 1042.25L476.33 1067.25L476.33 1117.25L433.03 1142.25L389.72 1117.25L389.72 1067.25zM476.33 1117.25L519.63 1142.25L519.63 1192.25L476.33 1217.25L433.03 1192.25L433.03 1142.25zM433.03 1192.25L476.33 1217.25L476.33 1267.25L433.03 1292.25L389.72 1267.25L389.72 1217.25zM476.33 1267.25L519.63 1292.25L519.63 1342.25L476.33 1367.25L433.03 1342.25L433.03 1292.25zM476.33 1417.25L519.63 1442.25L519.63 1492.25L476.33 1517.25L433.03 1492.25L433.03 1442.25zM476.33 1567.25L519.63 1592.25L519.63 1642.25L476.33 1667.25L433.03 1642.25L433.03 1592.25zM476.33 1717.25L519.63 1742.25L519.63 1792.25L476.33 1817.25L433.03 1792.25L433.03 1742.25zM476.33 1867.25L519.63 1892.25L519.63 1942.25L476.33 1967.25L433.03 1942.25L433.03 1892.25zM562.93 67.25L606.24 92.25L606.24 142.25L562.93 167.25L519.63 142.25L519.63 92.25zM519.63 142.25L562.93 167.25L562.93 217.25L519.63 242.25L476.33 217.25L476.33 167.25zM562.93 217.25L606.24 242.25L606.24 292.25L562.93 317.25L519.63 292.25L519.63 242.25zM519.63 292.25L562.93 317.25L562.93 367.25L519.63 392.25L476.33 367.25L476.33 317.25zM562.93 367.25L606.24 392.25L606.24 442.25L562.93 467.25L519.63 442.25L519.63 392.25zM519.63 442.25L562.93 467.25L562.93 517.25L519.63 542.25L476.33 517.25L476.33 467.25zM519.63 592.25L562.93 617.25L562.93 667.25L519.63 692.25L476.33 667.25L476.33 617.25zM562.93 667.25L606.24 692.25L606.24 742.25L562.93 767.25L519.63 742.25L519.63 692.25zM519.63 742.25L562.93 767.25L562.93 817.25L519.63 842.25L476.33 817.25L476.33 767.25zM562.93 817.25L606.24 842.25L606.24 892.25L562.93 917.25L519.63 892.25L519.63 842.25zM562.93 967.25L606.24 992.25L606.24 1042.25L562.93 1067.25L519.63 1042.25L519.63 992.25zM519.63 1192.25L562.93 1217.25L562.93 1267.25L519.63 1292.25L476.33 1267.25L476.33 1217.25zM562.93 1267.25L606.24 1292.25L606.24 1342.25L562.93 1367.25L519.63 1342.25L519.63 1292.25zM519.63 1342.25L562.93 1367.25L562.93 1417.25L519.63 1442.25L476.33 1417.25L476.33 1367.25zM562.93 1417.25L606.24 1442.25L606.24 1492.25L562.93 1517.25L519.63 1492.25L519.63 1442.25zM519.63 1492.25L562.93 1517.25L562.93 1567.25L519.63 1592.25L476.33 1567.25L476.33 1517.25zM562.93 1567.25L606.24 1592.25L606.24 1642.25L562.93 1667.25L519.63 1642.25L519.63 1592.25zM562.93 1717.25L606.24 1742.25L606.24 1792.25L562.93 1817.25L519.63 1792.25L519.63 1742.25zM562.93 2017.25L606.24 2042.25L606.24 2092.25L562.93 2117.25L519.63 2092.25L519.63 2042.25zM606.24 -7.75L649.54 17.25L649.54 67.25L606.24 92.25L562.93 67.25L562.93 17.25zM606.24 142.25L649.54 167.25L649.54 217.25L606.24 242.25L562.93 217.25L562.93 167.25zM649.54 217.25L692.84 242.25L692.84 292.25L649.54 317.25L606.24 292.25L606.24 242.25zM649.54 367.25L692.84 392.25L692.84 442.25L649.54 467.25L606.24 442.25L606.24 392.25zM606.24 442.25L649.54 467.25L649.54 517.25L606.24 542.25L562.93 517.25L562.93 467.25zM649.54 667.25L692.84 692.25L692.84 742.25L649.54 767.25L606.24 742.25L606.24 692.25zM606.24 742.25L649.54 767.25L649.54 817.25L606.24 842.25L562.93 817.25L562.93 767.25zM649.54 817.25L692.84 842.25L692.84 892.25L649.54 917.25L606.24 892.25L606.24 842.25zM606.24 892.25L649.54 917.25L649.54 967.25L606.24 992.25L562.93 967.25L562.93 917.25zM649.54 1267.25L692.84 1292.25L692.84 1342.25L649.54 1367.25L606.24 1342.25L606.24 1292.25zM606.24 1492.25L649.54 1517.25L649.54 1567.25L606.24 1592.25L562.93 1567.25L562.93 1517.25zM606.24 1642.25L649.54 1667.25L649.54 1717.25L606.24 1742.25L562.93 1717.25L562.93 1667.25zM606.24 1792.25L649.54 1817.25L649.54 1867.25L606.24 1892.25L562.93 1867.25L562.93 1817.25zM606.24 1942.25L649.54 1967.25L649.54 2017.25L606.24 2042.25L562.93 2017.25L562.93 1967.25zM692.84 142.25L736.14 167.25L736.14 217.25L692.84 242.25L649.54 217.25L649.54 167.25zM692.84 292.25L736.14 317.25L736.14 367.25L692.84 392.25L649.54 367.25L649.54 317.25zM736.14 517.25L779.45 542.25L779.45 592.25L736.14 617.25L692.84 592.25L692.84 542.25zM692.84 592.25L736.14 617.25L736.14 667.25L692.84 692.25L649.54 667.25L649.54 617.25zM736.14 667.25L779.45 692.25L779.45 742.25L736.14 767.25L692.84 742.25L692.84 692.25zM692.84 742.25L736.14 767.25L736.14 817.25L692.84 842.25L649.54 817.25L649.54 767.25zM736.14 817.25L779.45 842.25L779.45 892.25L736.14 917.25L692.84 892.25L692.84 842.25zM692.84 892.25L736.14 917.25L736.14 967.25L692.84 992.25L649.54 967.25L649.54 917.25zM692.84 1042.25L736.14 1067.25L736.14 1117.25L692.84 1142.25L649.54 1117.25L649.54 1067.25zM692.84 1192.25L736.14 1217.25L736.14 1267.25L692.84 1292.25L649.54 1267.25L649.54 1217.25zM736.14 1267.25L779.45 1292.25L779.45 1342.25L736.14 1367.25L692.84 1342.25L692.84 1292.25zM736.14 1417.25L779.45 1442.25L779.45 1492.25L736.14 1517.25L692.84 1492.25L692.84 1442.25zM692.84 1492.25L736.14 1517.25L736.14 1567.25L692.84 1592.25L649.54 1567.25L649.54 1517.25zM736.14 1717.25L779.45 1742.25L779.45 1792.25L736.14 1817.25L692.84 1792.25L692.84 1742.25zM692.84 1792.25L736.14 1817.25L736.14 1867.25L692.84 1892.25L649.54 1867.25L649.54 1817.25zM736.14 1867.25L779.45 1892.25L779.45 1942.25L736.14 1967.25L692.84 1942.25L692.84 1892.25zM736.14 2017.25L779.45 2042.25L779.45 2092.25L736.14 2117.25L692.84 2092.25L692.84 2042.25zM779.45 -7.75L822.75 17.25L822.75 67.25L779.45 92.25L736.14 67.25L736.14 17.25zM779.45 142.25L822.75 167.25L822.75 217.25L779.45 242.25L736.14 217.25L736.14 167.25zM779.45 442.25L822.75 467.25L822.75 517.25L779.45 542.25L736.14 517.25L736.14 467.25zM822.75 517.25L866.05 542.25L866.05 592.25L822.75 617.25L779.45 592.25L779.45 542.25zM779.45 592.25L822.75 617.25L822.75 667.25L779.45 692.25L736.14 667.25L736.14 617.25zM822.75 667.25L866.05 692.25L866.05 742.25L822.75 767.25L779.45 742.25L779.45 692.25zM779.45 892.25L822.75 917.25L822.75 967.25L779.45 992.25L736.14 967.25L736.14 917.25zM822.75 967.25L866.05 992.25L866.05 1042.25L822.75 1067.25L779.45 1042.25L779.45 992.25zM822.75 1267.25L866.05 1292.25L866.05 1342.25L822.75 1367.25L779.45 1342.25L779.45 1292.25zM779.45 1342.25L822.75 1367.25L822.75 1417.25L779.45 1442.25L736.14 1417.25L736.14 1367.25zM822.75 1567.25L866.05 1592.25L866.05 1642.25L822.75 1667.25L779.45 1642.25L779.45 1592.25zM822.75 1717.25L866.05 1742.25L866.05 1792.25L822.75 1817.25L779.45 1792.25L779.45 1742.25zM779.45 1792.25L822.75 1817.25L822.75 1867.25L779.45 1892.25L736.14 1867.25L736.14 1817.25zM779.45 1942.25L822.75 1967.25L822.75 2017.25L779.45 2042.25L736.14 2017.25L736.14 1967.25zM822.75 2017.25L866.05 2042.25L866.05 2092.25L822.75 2117.25L779.45 2092.25L779.45 2042.25zM866.05 142.25L909.35 167.25L909.35 217.25L866.05 242.25L822.75 217.25L822.75 167.25zM909.35 367.25L952.66 392.25L952.66 442.25L909.35 467.25L866.05 442.25L866.05 392.25zM866.05 442.25L909.35 467.25L909.35 517.25L866.05 542.25L822.75 517.25L822.75 467.25zM866.05 742.25L909.35 767.25L909.35 817.25L866.05 842.25L822.75 817.25L822.75 767.25zM909.35 967.25L952.66 992.25L952.66 1042.25L909.35 1067.25L866.05 1042.25L866.05 992.25zM866.05 1192.25L909.35 1217.25L909.35 1267.25L866.05 1292.25L822.75 1267.25L822.75 1217.25zM909.35 1417.25L952.66 1442.25L952.66 1492.25L909.35 1517.25L866.05 1492.25L866.05 1442.25zM909.35 1567.25L952.66 1592.25L952.66 1642.25L909.35 1667.25L866.05 1642.25L866.05 1592.25zM909.35 1717.25L952.66 1742.25L952.66 1792.25L909.35 1817.25L866.05 1792.25L866.05 1742.25zM909.35 1867.25L952.66 1892.25L952.66 1942.25L909.35 1967.25L866.05 1942.25L866.05 1892.25zM952.66 -7.75L995.96 17.25L995.96 67.25L952.66 92.25L909.35 67.25L909.35 17.25zM995.96 67.25L1039.26 92.25L1039.26 142.25L995.96 167.25L952.66 142.25L952.66 92.25zM995.96 217.25L1039.26 242.25L1039.26 292.25L995.96 317.25L952.66 292.25L952.66 242.25zM995.96 367.25L1039.26 392.25L1039.26 442.25L995.96 467.25L952.66 442.25L952.66 392.25zM995.96 667.25L1039.26 692.25L1039.26 742.25L995.96 767.25L952.66 742.25L952.66 692.25zM995.96 817.25L1039.26 842.25L1039.26 892.25L995.96 917.25L952.66 892.25L952.66 842.25zM995.96 967.25L1039.26 992.25L1039.26 1042.25L995.96 1067.25L952.66 1042.25L952.66 992.25zM952.66 1042.25L995.96 1067.25L995.96 1117.25L952.66 1142.25L909.35 1117.25L909.35 1067.25zM952.66 1192.25L995.96 1217.25L995.96 1267.25L952.66 1292.25L909.35 1267.25L909.35 1217.25zM995.96 1267.25L1039.26 1292.25L1039.26 1342.25L995.96 1367.25L952.66 1342.25L952.66 1292.25zM952.66 1342.25L995.96 1367.25L995.96 1417.25L952.66 1442.25L909.35 1417.25L909.35 1367.25zM995.96 1417.25L1039.26 1442.25L1039.26 1492.25L995.96 1517.25L952.66 1492.25L952.66 1442.25zM952.66 1792.25L995.96 1817.25L995.96 1867.25L952.66 1892.25L909.35 1867.25L909.35 1817.25zM995.96 1867.25L1039.26 1892.25L1039.26 1942.25L995.96 1967.25L952.66 1942.25L952.66 1892.25zM995.96 2017.25L1039.26 2042.25L1039.26 2092.25L995.96 2117.25L952.66 2092.25L952.66 2042.25zM1082.56 67.25L1125.87 92.25L1125.87 142.25L1082.56 167.25L1039.26 142.25L1039.26 92.25zM1082.56 667.25L1125.87 692.25L1125.87 742.25L1082.56 767.25L1039.26 742.25L1039.26 692.25zM1082.56 967.25L1125.87 992.25L1125.87 1042.25L1082.56 1067.25L1039.26 1042.25L1039.26 992.25zM1039.26 1042.25L1082.56 1067.25L1082.56 1117.25L1039.26 1142.25L995.96 1117.25L995.96 1067.25zM1082.56 1117.25L1125.87 1142.25L1125.87 1192.25L1082.56 1217.25L1039.26 1192.25L1039.26 1142.25zM1039.26 1192.25L1082.56 1217.25L1082.56 1267.25L1039.26 1292.25L995.96 1267.25L995.96 1217.25zM1039.26 1342.25L1082.56 1367.25L1082.56 1417.25L1039.26 1442.25L995.96 1417.25L995.96 1367.25zM1082.56 1417.25L1125.87 1442.25L1125.87 1492.25L1082.56 1517.25L1039.26 1492.25L1039.26 1442.25zM1039.26 1492.25L1082.56 1517.25L1082.56 1567.25L1039.26 1592.25L995.96 1567.25L995.96 1517.25zM1082.56 1567.25L1125.87 1592.25L1125.87 1642.25L1082.56 1667.25L1039.26 1642.25L1039.26 1592.25zM1039.26 1642.25L1082.56 1667.25L1082.56 1717.25L1039.26 1742.25L995.96 1717.25L995.96 1667.25zM1082.56 1717.25L1125.87 1742.25L1125.87 1792.25L1082.56 1817.25L1039.26 1792.25L1039.26 1742.25zM1039.26 1792.25L1082.56 1817.25L1082.56 1867.25L1039.26 1892.25L995.96 1867.25L995.96 1817.25zM1039.26 1942.25L1082.56 1967.25L1082.56 2017.25L1039.26 2042.25L995.96 2017.25L995.96 1967.25zM1125.87 -7.75L1169.17 17.25L1169.17 67.25L1125.87 92.25L1082.56 67.25L1082.56 17.25zM1169.17 67.25L1212.47 92.25L1212.47 142.25L1169.17 167.25L1125.87 142.25L1125.87 92.25zM1125.87 142.25L1169.17 167.25L1169.17 217.25L1125.87 242.25L1082.56 217.25L1082.56 167.25zM1169.17 367.25L1212.47 392.25L1212.47 442.25L1169.17 467.25L1125.87 442.25L1125.87 392.25zM1169.17 667.25L1212.47 692.25L1212.47 742.25L1169.17 767.25L1125.87 742.25L1125.87 692.25zM1125.87 892.25L1169.17 917.25L1169.17 967.25L1125.87 992.25L1082.56 967.25L1082.56 917.25zM1125.87 1042.25L1169.17 1067.25L1169.17 1117.25L1125.87 1142.25L1082.56 1117.25L1082.56 1067.25zM1169.17 1267.25L1212.47 1292.25L1212.47 1342.25L1169.17 1367.25L1125.87 1342.25L1125.87 1292.25zM1125.87 1792.25L1169.17 1817.25L1169.17 1867.25L1125.87 1892.25L1082.56 1867.25L1082.56 1817.25zM1125.87 1942.25L1169.17 1967.25L1169.17 2017.25L1125.87 2042.25L1082.56 2017.25L1082.56 1967.25zM1255.77 67.25L1299.08 92.25L1299.08 142.25L1255.77 167.25L1212.47 142.25L1212.47 92.25zM1212.47 142.25L1255.77 167.25L1255.77 217.25L1212.47 242.25L1169.17 217.25L1169.17 167.25zM1255.77 367.25L1299.08 392.25L1299.08 442.25L1255.77 467.25L1212.47 442.25L1212.47 392.25zM1255.77 517.25L1299.08 542.25L1299.08 592.25L1255.77 617.25L1212.47 592.25L1212.47 542.25zM1212.47 592.25L1255.77 617.25L1255.77 667.25L1212.47 692.25L1169.17 667.25L1169.17 617.25zM1255.77 667.25L1299.08 692.25L1299.08 742.25L1255.77 767.25L1212.47 742.25L1212.47 692.25zM1255.77 967.25L1299.08 992.25L1299.08 1042.25L1255.77 1067.25L1212.47 1042.25L1212.47 992.25zM1212.47 1192.25L1255.77 1217.25L1255.77 1267.25L1212.47 1292.25L1169.17 1267.25L1169.17 1217.25zM1255.77 1267.25L1299.08 1292.25L1299.08 1342.25L1255.77 1367.25L1212.47 1342.25L1212.47 1292.25zM1255.77 1417.25L1299.08 1442.25L1299.08 1492.25L1255.77 1517.25L1212.47 1492.25L1212.47 1442.25zM1212.47 1492.25L1255.77 1517.25L1255.77 1567.25L1212.47 1592.25L1169.17 1567.25L1169.17 1517.25zM1255.77 1567.25L1299.08 1592.25L1299.08 1642.25L1255.77 1667.25L1212.47 1642.25L1212.47 1592.25zM1212.47 1642.25L1255.77 1667.25L1255.77 1717.25L1212.47 1742.25L1169.17 1717.25L1169.17 1667.25zM1255.77 1717.25L1299.08 1742.25L1299.08 1792.25L1255.77 1817.25L1212.47 1792.25L1212.47 1742.25zM1255.77 1867.25L1299.08 1892.25L1299.08 1942.25L1255.77 1967.25L1212.47 1942.25L1212.47 1892.25zM1299.08 -7.75L1342.38 17.25L1342.38 67.25L1299.08 92.25L1255.77 67.25L1255.77 17.25zM1342.38 667.25L1385.68 692.25L1385.68 742.25L1342.38 767.25L1299.08 742.25L1299.08 692.25zM1342.38 967.25L1385.68 992.25L1385.68 1042.25L1342.38 1067.25L1299.08 1042.25L1299.08 992.25zM1299.08 1342.25L1342.38 1367.25L1342.38 1417.25L1299.08 1442.25L1255.77 1417.25L1255.77 1367.25zM1342.38 1417.25L1385.68 1442.25L1385.68 1492.25L1342.38 1517.25L1299.08 1492.25L1299.08 1442.25zM1299.08 1492.25L1342.38 1517.25L1342.38 1567.25L1299.08 1592.25L1255.77 1567.25L1255.77 1517.25zM1299.08 1642.25L1342.38 1667.25L1342.38 1717.25L1299.08 1742.25L1255.77 1717.25L1255.77 1667.25zM1342.38 1717.25L1385.68 1742.25L1385.68 1792.25L1342.38 1817.25L1299.08 1792.25L1299.08 1742.25zM1342.38 1867.25L1385.68 1892.25L1385.68 1942.25L1342.38 1967.25L1299.08 1942.25L1299.08 1892.25zM1385.68 -7.75L1428.98 17.25L1428.98 67.25L1385.68 92.25L1342.38 67.25L1342.38 17.25zM1385.68 142.25L1428.98 167.25L1428.98 217.25L1385.68 242.25L1342.38 217.25L1342.38 167.25zM1385.68 292.25L1428.98 317.25L1428.98 367.25L1385.68 392.25L1342.38 367.25L1342.38 317.25zM1428.98 367.25L1472.29 392.25L1472.29 442.25L1428.98 467.25L1385.68 442.25L1385.68 392.25zM1385.68 442.25L1428.98 467.25L1428.98 517.25L1385.68 542.25L1342.38 517.25L1342.38 467.25zM1428.98 517.25L1472.29 542.25L1472.29 592.25L1428.98 617.25L1385.68 592.25L1385.68 542.25zM1385.68 1342.25L1428.98 1367.25L1428.98 1417.25L1385.68 1442.25L1342.38 1417.25L1342.38 1367.25zM1428.98 1417.25L1472.29 1442.25L1472.29 1492.25L1428.98 1517.25L1385.68 1492.25L1385.68 1442.25zM1385.68 1492.25L1428.98 1517.25L1428.98 1567.25L1385.68 1592.25L1342.38 1567.25L1342.38 1517.25zM1385.68 1642.25L1428.98 1667.25L1428.98 1717.25L1385.68 1742.25L1342.38 1717.25L1342.38 1667.25zM1385.68 1792.25L1428.98 1817.25L1428.98 1867.25L1385.68 1892.25L1342.38 1867.25L1342.38 1817.25zM1428.98 1867.25L1472.29 1892.25L1472.29 1942.25L1428.98 1967.25L1385.68 1942.25L1385.68 1892.25zM1472.29 -7.75L1515.59 17.25L1515.59 67.25L1472.29 92.25L1428.98 67.25L1428.98 17.25zM1472.29 442.25L1515.59 467.25L1515.59 517.25L1472.29 542.25L1428.98 517.25L1428.98 467.25zM1515.59 517.25L1558.89 542.25L1558.89 592.25L1515.59 617.25L1472.29 592.25L1472.29 542.25zM1472.29 592.25L1515.59 617.25L1515.59 667.25L1472.29 692.25L1428.98 667.25L1428.98 617.25zM1515.59 817.25L1558.89 842.25L1558.89 892.25L1515.59 917.25L1472.29 892.25L1472.29 842.25zM1472.29 892.25L1515.59 917.25L1515.59 967.25L1472.29 992.25L1428.98 967.25L1428.98 917.25zM1515.59 967.25L1558.89 992.25L1558.89 1042.25L1515.59 1067.25L1472.29 1042.25L1472.29 992.25zM1472.29 1042.25L1515.59 1067.25L1515.59 1117.25L1472.29 1142.25L1428.98 1117.25L1428.98 1067.25zM1515.59 1117.25L1558.89 1142.25L1558.89 1192.25L1515.59 1217.25L1472.29 1192.25L1472.29 1142.25zM1472.29 1342.25L1515.59 1367.25L1515.59 1417.25L1472.29 1442.25L1428.98 1417.25L1428.98 1367.25zM1515.59 1417.25L1558.89 1442.25L1558.89 1492.25L1515.59 1517.25L1472.29 1492.25L1472.29 1442.25zM1515.59 1567.25L1558.89 1592.25L1558.89 1642.25L1515.59 1667.25L1472.29 1642.25L1472.29 1592.25zM1472.29 1792.25L1515.59 1817.25L1515.59 1867.25L1472.29 1892.25L1428.98 1867.25L1428.98 1817.25zM1515.59 1867.25L1558.89 1892.25L1558.89 1942.25L1515.59 1967.25L1472.29 1942.25L1472.29 1892.25zM1472.29 1942.25L1515.59 1967.25L1515.59 2017.25L1472.29 2042.25L1428.98 2017.25L1428.98 1967.25zM1515.59 2017.25L1558.89 2042.25L1558.89 2092.25L1515.59 2117.25L1472.29 2092.25L1472.29 2042.25zM1558.89 -7.75L1602.19 17.25L1602.19 67.25L1558.89 92.25L1515.59 67.25L1515.59 17.25zM1602.19 67.25L1645.5 92.25L1645.5 142.25L1602.19 167.25L1558.89 142.25L1558.89 92.25zM1558.89 292.25L1602.19 317.25L1602.19 367.25L1558.89 392.25L1515.59 367.25L1515.59 317.25zM1558.89 442.25L1602.19 467.25L1602.19 517.25L1558.89 542.25L1515.59 517.25L1515.59 467.25zM1602.19 517.25L1645.5 542.25L1645.5 592.25L1602.19 617.25L1558.89 592.25L1558.89 542.25zM1602.19 667.25L1645.5 692.25L1645.5 742.25L1602.19 767.25L1558.89 742.25L1558.89 692.25zM1558.89 742.25L1602.19 767.25L1602.19 817.25L1558.89 842.25L1515.59 817.25L1515.59 767.25zM1602.19 817.25L1645.5 842.25L1645.5 892.25L1602.19 917.25L1558.89 892.25L1558.89 842.25zM1602.19 967.25L1645.5 992.25L1645.5 1042.25L1602.19 1067.25L1558.89 1042.25L1558.89 992.25zM1558.89 1042.25L1602.19 1067.25L1602.19 1117.25L1558.89 1142.25L1515.59 1117.25L1515.59 1067.25zM1602.19 1117.25L1645.5 1142.25L1645.5 1192.25L1602.19 1217.25L1558.89 1192.25L1558.89 1142.25zM1558.89 1192.25L1602.19 1217.25L1602.19 1267.25L1558.89 1292.25L1515.59 1267.25L1515.59 1217.25zM1602.19 1417.25L1645.5 1442.25L1645.5 1492.25L1602.19 1517.25L1558.89 1492.25L1558.89 1442.25zM1558.89 1492.25L1602.19 1517.25L1602.19 1567.25L1558.89 1592.25L1515.59 1567.25L1515.59 1517.25zM1602.19 1717.25L1645.5 1742.25L1645.5 1792.25L1602.19 1817.25L1558.89 1792.25L1558.89 1742.25zM1602.19 1867.25L1645.5 1892.25L1645.5 1942.25L1602.19 1967.25L1558.89 1942.25L1558.89 1892.25zM1558.89 1942.25L1602.19 1967.25L1602.19 2017.25L1558.89 2042.25L1515.59 2017.25L1515.59 1967.25zM1602.19 2017.25L1645.5 2042.25L1645.5 2092.25L1602.19 2117.25L1558.89 2092.25L1558.89 2042.25zM1645.5 -7.75L1688.8 17.25L1688.8 67.25L1645.5 92.25L1602.19 67.25L1602.19 17.25zM1645.5 142.25L1688.8 167.25L1688.8 217.25L1645.5 242.25L1602.19 217.25L1602.19 167.25zM1688.8 367.25L1732.1 392.25L1732.1 442.25L1688.8 467.25L1645.5 442.25L1645.5 392.25zM1645.5 442.25L1688.8 467.25L1688.8 517.25L1645.5 542.25L1602.19 517.25L1602.19 467.25zM1688.8 517.25L1732.1 542.25L1732.1 592.25L1688.8 617.25L1645.5 592.25L1645.5 542.25zM1645.5 742.25L1688.8 767.25L1688.8 817.25L1645.5 842.25L1602.19 817.25L1602.19 767.25zM1645.5 892.25L1688.8 917.25L1688.8 967.25L1645.5 992.25L1602.19 967.25L1602.19 917.25zM1645.5 1342.25L1688.8 1367.25L1688.8 1417.25L1645.5 1442.25L1602.19 1417.25L1602.19 1367.25zM1688.8 1567.25L1732.1 1592.25L1732.1 1642.25L1688.8 1667.25L1645.5 1642.25L1645.5 1592.25zM1645.5 1642.25L1688.8 1667.25L1688.8 1717.25L1645.5 1742.25L1602.19 1717.25L1602.19 1667.25zM1688.8 1717.25L1732.1 1742.25L1732.1 1792.25L1688.8 1817.25L1645.5 1792.25L1645.5 1742.25zM1645.5 1792.25L1688.8 1817.25L1688.8 1867.25L1645.5 1892.25L1602.19 1867.25L1602.19 1817.25zM1688.8 1867.25L1732.1 1892.25L1732.1 1942.25L1688.8 1967.25L1645.5 1942.25L1645.5 1892.25zM1732.1 -7.75L1775.4 17.25L1775.4 67.25L1732.1 92.25L1688.8 67.25L1688.8 17.25zM1775.4 667.25L1818.71 692.25L1818.71 742.25L1775.4 767.25L1732.1 742.25L1732.1 692.25zM1732.1 742.25L1775.4 767.25L1775.4 817.25L1732.1 842.25L1688.8 817.25L1688.8 767.25zM1732.1 892.25L1775.4 917.25L1775.4 967.25L1732.1 992.25L1688.8 967.25L1688.8 917.25zM1775.4 967.25L1818.71 992.25L1818.71 1042.25L1775.4 1067.25L1732.1 1042.25L1732.1 992.25zM1732.1 1042.25L1775.4 1067.25L1775.4 1117.25L1732.1 1142.25L1688.8 1117.25L1688.8 1067.25zM1732.1 1192.25L1775.4 1217.25L1775.4 1267.25L1732.1 1292.25L1688.8 1267.25L1688.8 1217.25zM1775.4 1267.25L1818.71 1292.25L1818.71 1342.25L1775.4 1367.25L1732.1 1342.25L1732.1 1292.25zM1732.1 1342.25L1775.4 1367.25L1775.4 1417.25L1732.1 1442.25L1688.8 1417.25L1688.8 1367.25zM1775.4 1417.25L1818.71 1442.25L1818.71 1492.25L1775.4 1517.25L1732.1 1492.25L1732.1 1442.25zM1732.1 1492.25L1775.4 1517.25L1775.4 1567.25L1732.1 1592.25L1688.8 1567.25L1688.8 1517.25zM1775.4 1717.25L1818.71 1742.25L1818.71 1792.25L1775.4 1817.25L1732.1 1792.25L1732.1 1742.25zM1732.1 1792.25L1775.4 1817.25L1775.4 1867.25L1732.1 1892.25L1688.8 1867.25L1688.8 1817.25zM1775.4 1867.25L1818.71 1892.25L1818.71 1942.25L1775.4 1967.25L1732.1 1942.25L1732.1 1892.25zM1732.1 1942.25L1775.4 1967.25L1775.4 2017.25L1732.1 2042.25L1688.8 2017.25L1688.8 1967.25zM1818.71 -7.75L1862.01 17.25L1862.01 67.25L1818.71 92.25L1775.4 67.25L1775.4 17.25zM1818.71 142.25L1862.01 167.25L1862.01 217.25L1818.71 242.25L1775.4 217.25L1775.4 167.25zM1862.01 367.25L1905.31 392.25L1905.31 442.25L1862.01 467.25L1818.71 442.25L1818.71 392.25zM1862.01 517.25L1905.31 542.25L1905.31 592.25L1862.01 617.25L1818.71 592.25L1818.71 542.25zM1862.01 817.25L1905.31 842.25L1905.31 892.25L1862.01 917.25L1818.71 892.25L1818.71 842.25zM1818.71 892.25L1862.01 917.25L1862.01 967.25L1818.71 992.25L1775.4 967.25L1775.4 917.25zM1862.01 967.25L1905.31 992.25L1905.31 1042.25L1862.01 1067.25L1818.71 1042.25L1818.71 992.25zM1862.01 1117.25L1905.31 1142.25L1905.31 1192.25L1862.01 1217.25L1818.71 1192.25L1818.71 1142.25zM1818.71 1192.25L1862.01 1217.25L1862.01 1267.25L1818.71 1292.25L1775.4 1267.25L1775.4 1217.25zM1862.01 1267.25L1905.31 1292.25L1905.31 1342.25L1862.01 1367.25L1818.71 1342.25L1818.71 1292.25zM1818.71 1342.25L1862.01 1367.25L1862.01 1417.25L1818.71 1442.25L1775.4 1417.25L1775.4 1367.25zM1862.01 1417.25L1905.31 1442.25L1905.31 1492.25L1862.01 1517.25L1818.71 1492.25L1818.71 1442.25zM1818.71 1492.25L1862.01 1517.25L1862.01 1567.25L1818.71 1592.25L1775.4 1567.25L1775.4 1517.25zM1862.01 2017.25L1905.31 2042.25L1905.31 2092.25L1862.01 2117.25L1818.71 2092.25L1818.71 2042.25zM1948.61 67.25L1991.92 92.25L1991.92 142.25L1948.61 167.25L1905.31 142.25L1905.31 92.25zM1905.31 292.25L1948.61 317.25L1948.61 367.25L1905.31 392.25L1862.01 367.25L1862.01 317.25zM1948.61 367.25L1991.92 392.25L1991.92 442.25L1948.61 467.25L1905.31 442.25L1905.31 392.25zM1905.31 592.25L1948.61 617.25L1948.61 667.25L1905.31 692.25L1862.01 667.25L1862.01 617.25zM1905.31 1042.25L1948.61 1067.25L1948.61 1117.25L1905.31 1142.25L1862.01 1117.25L1862.01 1067.25zM1948.61 1267.25L1991.92 1292.25L1991.92 1342.25L1948.61 1367.25L1905.31 1342.25L1905.31 1292.25zM1905.31 1342.25L1948.61 1367.25L1948.61 1417.25L1905.31 1442.25L1862.01 1417.25L1862.01 1367.25zM1948.61 1417.25L1991.92 1442.25L1991.92 1492.25L1948.61 1517.25L1905.31 1492.25L1905.31 1442.25zM1905.31 1492.25L1948.61 1517.25L1948.61 1567.25L1905.31 1592.25L1862.01 1567.25L1862.01 1517.25zM1948.61 1567.25L1991.92 1592.25L1991.92 1642.25L1948.61 1667.25L1905.31 1642.25L1905.31 1592.25zM1991.92 -7.75L2035.22 17.25L2035.22 67.25L1991.92 92.25L1948.61 67.25L1948.61 17.25zM2035.22 67.25L2078.52 92.25L2078.52 142.25L2035.22 167.25L1991.92 142.25L1991.92 92.25zM1991.92 142.25L2035.22 167.25L2035.22 217.25L1991.92 242.25L1948.61 217.25L1948.61 167.25zM1991.92 442.25L2035.22 467.25L2035.22 517.25L1991.92 542.25L1948.61 517.25L1948.61 467.25zM1991.92 742.25L2035.22 767.25L2035.22 817.25L1991.92 842.25L1948.61 817.25L1948.61 767.25zM2035.22 817.25L2078.52 842.25L2078.52 892.25L2035.22 917.25L1991.92 892.25L1991.92 842.25zM2035.22 1267.25L2078.52 1292.25L2078.52 1342.25L2035.22 1367.25L1991.92 1342.25L1991.92 1292.25zM1991.92 1642.25L2035.22 1667.25L2035.22 1717.25L1991.92 1742.25L1948.61 1717.25L1948.61 1667.25zM1991.92 1792.25L2035.22 1817.25L2035.22 1867.25L1991.92 1892.25L1948.61 1867.25L1948.61 1817.25zM2078.52 -7.75L2121.82 17.25L2121.82 67.25L2078.52 92.25L2035.22 67.25L2035.22 17.25zM2121.82 67.25L2165.12 92.25L2165.12 142.25L2121.82 167.25L2078.52 142.25L2078.52 92.25zM2121.82 217.25L2165.12 242.25L2165.12 292.25L2121.82 317.25L2078.52 292.25L2078.52 242.25zM2078.52 442.25L2121.82 467.25L2121.82 517.25L2078.52 542.25L2035.22 517.25L2035.22 467.25zM2121.82 667.25L2165.12 692.25L2165.12 742.25L2121.82 767.25L2078.52 742.25L2078.52 692.25zM2121.82 967.25L2165.12 992.25L2165.12 1042.25L2121.82 1067.25L2078.52 1042.25L2078.52 992.25zM2121.82 1267.25L2165.12 1292.25L2165.12 1342.25L2121.82 1367.25L2078.52 1342.25L2078.52 1292.25zM2078.52 1342.25L2121.82 1367.25L2121.82 1417.25L2078.52 1442.25L2035.22 1417.25L2035.22 1367.25zM2121.82 1417.25L2165.12 1442.25L2165.12 1492.25L2121.82 1517.25L2078.52 1492.25L2078.52 1442.25zM2078.52 1792.25L2121.82 1817.25L2121.82 1867.25L2078.52 1892.25L2035.22 1867.25L2035.22 1817.25zM2078.52 1942.25L2121.82 1967.25L2121.82 2017.25L2078.52 2042.25L2035.22 2017.25L2035.22 1967.25zM2165.13 -7.75L2208.43 17.25L2208.43 67.25L2165.13 92.25L2121.82 67.25L2121.82 17.25zM2208.43 67.25L2251.73 92.25L2251.73 142.25L2208.43 167.25L2165.13 142.25L2165.13 92.25zM2165.13 142.25L2208.43 167.25L2208.43 217.25L2165.13 242.25L2121.82 217.25L2121.82 167.25zM2165.13 292.25L2208.43 317.25L2208.43 367.25L2165.13 392.25L2121.82 367.25L2121.82 317.25zM2208.43 367.25L2251.73 392.25L2251.73 442.25L2208.43 467.25L2165.13 442.25L2165.13 392.25zM2208.43 517.25L2251.73 542.25L2251.73 592.25L2208.43 617.25L2165.13 592.25L2165.13 542.25zM2208.43 817.25L2251.73 842.25L2251.73 892.25L2208.43 917.25L2165.13 892.25L2165.13 842.25zM2208.43 967.25L2251.73 992.25L2251.73 1042.25L2208.43 1067.25L2165.13 1042.25L2165.13 992.25zM2165.13 1042.25L2208.43 1067.25L2208.43 1117.25L2165.13 1142.25L2121.82 1117.25L2121.82 1067.25zM2208.43 1117.25L2251.73 1142.25L2251.73 1192.25L2208.43 1217.25L2165.13 1192.25L2165.13 1142.25zM2208.43 1567.25L2251.73 1592.25L2251.73 1642.25L2208.43 1667.25L2165.13 1642.25L2165.13 1592.25zM2165.13 1942.25L2208.43 1967.25L2208.43 2017.25L2165.13 2042.25L2121.82 2017.25L2121.82 1967.25zM2208.43 2017.25L2251.73 2042.25L2251.73 2092.25L2208.43 2117.25L2165.13 2092.25L2165.13 2042.25zM2295.03 67.25L2338.33 92.25L2338.33 142.25L2295.03 167.25L2251.73 142.25L2251.73 92.25zM2251.73 592.25L2295.03 617.25L2295.03 667.25L2251.73 692.25L2208.43 667.25L2208.43 617.25zM2251.73 742.25L2295.03 767.25L2295.03 817.25L2251.73 842.25L2208.43 817.25L2208.43 767.25zM2295.03 1567.25L2338.33 1592.25L2338.33 1642.25L2295.03 1667.25L2251.73 1642.25L2251.73 1592.25zM2251.73 1642.25L2295.03 1667.25L2295.03 1717.25L2251.73 1742.25L2208.43 1717.25L2208.43 1667.25zM2295.03 1717.25L2338.33 1742.25L2338.33 1792.25L2295.03 1817.25L2251.73 1792.25L2251.73 1742.25zM2251.73 1792.25L2295.03 1817.25L2295.03 1867.25L2251.73 1892.25L2208.43 1867.25L2208.43 1817.25zM2295.03 1867.25L2338.33 1892.25L2338.33 1942.25L2295.03 1967.25L2251.73 1942.25L2251.73 1892.25zM2381.64 67.25L2424.94 92.25L2424.94 142.25L2381.64 167.25L2338.34 142.25L2338.34 92.25zM2381.64 217.25L2424.94 242.25L2424.94 292.25L2381.64 317.25L2338.34 292.25L2338.34 242.25zM2381.64 367.25L2424.94 392.25L2424.94 442.25L2381.64 467.25L2338.34 442.25L2338.34 392.25zM2338.34 442.25L2381.64 467.25L2381.64 517.25L2338.34 542.25L2295.03 517.25L2295.03 467.25zM2381.64 667.25L2424.94 692.25L2424.94 742.25L2381.64 767.25L2338.34 742.25L2338.34 692.25zM2381.64 817.25L2424.94 842.25L2424.94 892.25L2381.64 917.25L2338.34 892.25L2338.34 842.25zM2338.34 1042.25L2381.64 1067.25L2381.64 1117.25L2338.34 1142.25L2295.03 1117.25L2295.03 1067.25zM2381.64 1267.25L2424.94 1292.25L2424.94 1342.25L2381.64 1367.25L2338.34 1342.25L2338.34 1292.25zM2338.34 1342.25L2381.64 1367.25L2381.64 1417.25L2338.34 1442.25L2295.03 1417.25L2295.03 1367.25zM2381.64 1417.25L2424.94 1442.25L2424.94 1492.25L2381.64 1517.25L2338.34 1492.25L2338.34 1442.25zM2338.34 1492.25L2381.64 1517.25L2381.64 1567.25L2338.34 1592.25L2295.03 1567.25L2295.03 1517.25zM2338.34 1642.25L2381.64 1667.25L2381.64 1717.25L2338.34 1742.25L2295.03 1717.25L2295.03 1667.25zM2381.64 1717.25L2424.94 1742.25L2424.94 1792.25L2381.64 1817.25L2338.34 1792.25L2338.34 1742.25zM2424.94 142.25L2468.24 167.25L2468.24 217.25L2424.94 242.25L2381.64 217.25L2381.64 167.25zM2468.24 217.25L2511.54 242.25L2511.54 292.25L2468.24 317.25L2424.94 292.25L2424.94 242.25zM2424.94 292.25L2468.24 317.25L2468.24 367.25L2424.94 392.25L2381.64 367.25L2381.64 317.25zM2424.94 442.25L2468.24 467.25L2468.24 517.25L2424.94 542.25L2381.64 517.25L2381.64 467.25zM2424.94 592.25L2468.24 617.25L2468.24 667.25L2424.94 692.25L2381.64 667.25L2381.64 617.25zM2468.24 667.25L2511.54 692.25L2511.54 742.25L2468.24 767.25L2424.94 742.25L2424.94 692.25zM2468.24 817.25L2511.54 842.25L2511.54 892.25L2468.24 917.25L2424.94 892.25L2424.94 842.25zM2468.24 1267.25L2511.54 1292.25L2511.54 1342.25L2468.24 1367.25L2424.94 1342.25L2424.94 1292.25zM2424.94 1492.25L2468.24 1517.25L2468.24 1567.25L2424.94 1592.25L2381.64 1567.25L2381.64 1517.25zM2424.94 1642.25L2468.24 1667.25L2468.24 1717.25L2424.94 1742.25L2381.64 1717.25L2381.64 1667.25zM2424.94 1792.25L2468.24 1817.25L2468.24 1867.25L2424.94 1892.25L2381.64 1867.25L2381.64 1817.25z" stroke="rgba(0, 0, 0, 0)" stroke-width="2"></path></g><defs><mask id="SvgjsMask1025"><rect width="2500" height="2000" fill="#ffffff"></rect></mask></defs></svg>